<?xml version="1.0" encoding="UTF-8"?>
<svg id="Layer_1" data-name="Layer 1" xmlns="http://www.w3.org/2000/svg" xmlns:xlink="http://www.w3.org/1999/xlink" viewBox="0 0 180 134">
  <defs>
    <style>
      .cls-1 {
        fill: #fff;
      }

      .cls-1, .cls-2, .cls-3 {
        fill-rule: evenodd;
      }

      .cls-2 {
        fill: #257dda;
      }

      .cls-3 {
        fill: url(#linear-gradient);
      }
    </style>
    <linearGradient id="linear-gradient" x1="-841.74" y1="275.84" x2="-841.61" y2="275.84" gradientTransform="translate(198437.07 356711.96) rotate(42.78) scale(460.7 -460.7)" gradientUnits="userSpaceOnUse">
      <stop offset="0" stop-color="#195ca1"/>
      <stop offset="1" stop-color="#2274cc"/>
    </linearGradient>
  </defs>
  <g>
    <path class="cls-2" d="M129.78,14.21c-3.41-1.26-6.94-2.18-10.53-2.75l-3.51,3.86c-3.79-.4-7.62-.37-11.4.07l-3.56-3.82c-3.58.62-7.1,1.58-10.49,2.88l-1.11,5.1c-3.48,1.55-6.78,3.49-9.84,5.76l-4.99-1.53c-2.79,2.33-5.35,4.92-7.65,7.74l1.59,4.97c-2.24,3.09-4.13,6.41-5.64,9.91l-5.08,1.17c-1.26,3.41-2.18,6.94-2.75,10.53l3.86,3.51c-.4,3.79-.37,7.62.07,11.4l-3.82,3.56c.62,3.58,1.58,7.1,2.88,10.49l5.1,1.11c1.55,3.48,3.49,6.78,5.76,9.84l-1.53,4.99c2.33,2.79,4.92,5.35,7.74,7.65l4.97-1.59c3.09,2.24,6.41,4.13,9.91,5.64l1.17,5.08c3.41,1.25,6.94,2.18,10.53,2.75l3.51-3.86c3.79.4,7.62.37,11.4-.07l3.56,3.82c3.58-.62,7.1-1.58,10.49-2.88l1.11-5.1c3.48-1.55,6.78-3.49,9.84-5.76l4.99,1.53c2.79-2.33,5.35-4.92,7.65-7.74l-1.59-4.97c2.24-3.09,4.13-6.41,5.64-9.91l5.08-1.17c1.26-3.41,2.18-6.94,2.75-10.53l-3.86-3.51c.4-3.79.37-7.62-.07-11.4l3.82-3.56c-.62-3.58-1.58-7.1-2.88-10.49l-5.1-1.11c-1.55-3.48-3.49-6.78-5.76-9.84l1.53-4.99c-2.33-2.79-4.92-5.35-7.74-7.65l-4.97,1.59c-3.09-2.24-6.41-4.13-9.91-5.64l-1.17-5.08Z"/>
    <path class="cls-3" d="M107.25,118.87l-29.6-28.39,26.9-20.6-10.12-9.19,32.34-17.42,37.89,38.4c-.43,1.61-.94,3.2-1.52,4.76l-5.08,1.17c-1.51,3.5-3.4,6.82-5.64,9.91l1.59,4.97c-2.29,2.82-4.85,5.41-7.65,7.74l-4.99-1.53c-3.06,2.28-6.36,4.21-9.84,5.76l-1.11,5.1c-3.4,1.3-6.91,2.26-10.49,2.88l-3.56-3.82c-3.03.35-6.08.44-9.12.26Z"/>
    <path class="cls-1" d="M104.38,68.61c.02.09.08.17.16.21.8.47,5.28,3.05,5.28,3.05v5.64s0,.08-.03.12l-.09.2c-.35.75-1.19,1.15-1.99.93l-.97-.26c-.82-.22-1.7-.05-2.38.47-.68.52-1.07,1.32-1.07,2.18h0c0,.85.4,1.66,1.07,2.18.68.52,1.56.69,2.38.47l1.06-.29c.74-.2,1.52.16,1.85.86l.13.28c.03.05.04.11.04.17v5.62l-16.08,9.28-16.08-9.28v-18.57l16.08-9.28s5.04,2.91,5.87,3.39c.08.04.17.06.25.04.59-.13,1.1-.37,1.52-.69.83-.44,1.46-1.22,1.46-2.17,0,0,0,0,0-.03,0-.5.26-.97.69-1.25.42-.27.94-.41,1.42-.25.25.08.46.22.64.39.35.34.57.94.53,1.43s-.32.93-.74,1.18c-.82.48-1.23,1.38-1.21,2.3.01.52.05,1.11.21,1.7Z"/>
    <path class="cls-1" d="M116.23,68.02c-.09-.02-.19-.01-.27.04-.81.46-5.28,3.05-5.28,3.05l-4.89-2.82s-.07-.05-.09-.08l-.13-.18c-.48-.68-.4-1.61.19-2.19l.71-.71c.6-.6.89-1.45.78-2.3-.11-.85-.61-1.59-1.35-2.02h0c-.74-.43-1.63-.49-2.42-.16-.79.33-1.38,1-1.6,1.83l-.28,1.07c-.2.74-.9,1.24-1.67,1.17l-.31-.03c-.06,0-.12-.02-.17-.05l-4.86-2.81v-18.57s16.08-9.28,16.08-9.28l16.08,9.28v18.57s-5.04,2.91-5.87,3.39c-.08.04-.13.11-.16.2-.18.58-.21,1.14-.18,1.66.13.93.36,1.88,1.18,2.36,0,0,.02.01.02.01.43.26.71.71.74,1.22.02.5-.11,1.02-.49,1.36-.19.17-.41.3-.66.36-.48.12-1.1.03-1.5-.25s-.64-.74-.65-1.23c0-.95-.58-1.76-1.39-2.2-.46-.25-.99-.51-1.57-.67Z"/>
    <path class="cls-1" d="M110.76,78.57c.07-.07.1-.16.1-.25,0-.93-.02-6.09-.02-6.09l4.88-2.83s.08-.03.12-.04l.22-.02c.83-.08,1.59.45,1.81,1.26l.26.97c.22.82.82,1.5,1.6,1.82.79.32,1.68.26,2.42-.17h0c.74-.43,1.23-1.18,1.34-2.02.11-.85-.18-1.7-.79-2.3l-.78-.78c-.55-.54-.63-1.4-.19-2.03l.18-.26s.08-.09.13-.12l4.86-2.82,16.11,9.24.05,18.57-16.05,9.33-16.11-9.24s-.02-5.82-.02-6.78c0-.09-.03-.17-.09-.23-.41-.45-.8-.82-1.25-1.07-.52-.3-1.9-.54-2.73-.07,0,0,0,0-.02.01-.44.25-.97.26-1.42.03-.45-.23-.83-.61-.93-1.1-.05-.25-.04-.5.02-.75.1-.48.52-.97.97-1.18s.96-.19,1.39.05c.83.46,1.81.37,2.6-.11.45-.27.94-.6,1.36-1.03Z"/>
  </g>
</svg>
